<?xml version="1.0" standalone="no"?>
<!DOCTYPE svg PUBLIC "-//W3C//DTD SVG 20010904//EN"
 "http://www.w3.org/TR/2001/REC-SVG-20010904/DTD/svg10.dtd">
<svg version="1.0" xmlns="http://www.w3.org/2000/svg"
 width="660.000000pt" height="660.000000pt" viewBox="0 0 660.000000 660.000000"
 preserveAspectRatio="xMidYMid meet">
<metadata>
Created by potrace 1.11, written by Peter Selinger 2001-2013
</metadata>
<g transform="translate(0.000000,660.000000) scale(0.100000,-0.100000)"
fill="#000000" stroke="none">
<path d="M5807 5083 c-1 -1 -70 -4 -152 -7 -83 -4 -172 -9 -200 -11 -27 -2
-99 -7 -160 -10 -60 -3 -139 -8 -175 -10 -36 -2 -112 -7 -170 -10 -58 -3 -139
-8 -180 -10 -162 -10 -259 -16 -350 -20 -52 -3 -126 -7 -165 -10 -38 -3 -117
-7 -175 -10 -58 -3 -134 -7 -170 -10 -36 -2 -123 -7 -195 -10 -71 -2 -130 -5
-130 -6 0 -2 -58 -6 -195 -13 -63 -4 -144 -8 -180 -11 -36 -2 -119 -7 -185
-10 -66 -4 -123 -9 -127 -11 -5 -3 -8 1 -8 8 0 8 -3 9 -8 3 -4 -5 -18 -11 -32
-12 -14 0 -83 -4 -155 -8 -71 -3 -159 -8 -195 -11 -36 -2 -110 -6 -165 -9 -55
-3 -134 -8 -175 -10 -41 -3 -118 -7 -170 -9 -101 -5 -256 -14 -380 -22 -41 -3
-115 -7 -165 -9 -49 -3 -121 -7 -160 -9 -38 -2 -124 -7 -190 -11 -66 -3 -142
-8 -170 -10 -27 -2 -108 -6 -180 -10 -186 -10 -184 -10 -189 -15 -2 -3 -7 -32
-10 -65 -10 -104 -16 -128 -56 -210 -88 -179 -271 -302 -468 -314 -14 -1 -14
-4 8 -396 6 -99 13 -220 15 -270 3 -49 7 -126 10 -170 6 -84 10 -152 20 -350
3 -66 8 -145 10 -175 2 -30 6 -107 10 -170 3 -63 8 -146 11 -185 2 -38 6 -106
9 -150 5 -108 17 -280 18 -281 1 -1 36 -4 77 -8 152 -13 255 -60 360 -166 77
-77 140 -182 140 -232 0 -14 3 -28 8 -32 7 -7 8 -16 11 -72 1 -26 1 -26 73
-20 40 3 123 8 183 11 61 3 137 8 170 10 66 6 179 12 325 20 52 2 124 7 160 9
36 3 112 7 170 11 105 6 143 8 359 20 63 4 142 8 175 11 34 2 113 6 176 9 63
3 140 8 170 10 30 3 107 7 170 9 63 3 115 6 115 6 0 2 58 6 230 15 72 4 164 9
205 11 41 3 116 6 165 9 50 2 90 4 90 5 0 1 29 3 65 5 36 2 108 6 160 9 52 3
138 8 190 11 52 3 130 7 174 10 43 2 81 6 83 9 3 3 14 1 24 -5 11 -5 19 -6 19
-2 0 4 21 9 48 9 26 1 103 5 172 8 69 3 168 8 220 11 52 2 133 7 180 10 47 3
123 7 170 10 47 2 128 7 180 10 52 3 135 8 184 10 49 3 126 7 170 10 99 7 243
15 314 17 55 2 55 2 54 61 0 15 3 27 7 27 5 0 6 11 3 25 -2 14 6 56 18 93 71
209 235 350 453 388 l38 6 -6 112 c-10 172 -12 211 -20 361 -4 77 -9 142 -11
144 -2 2 1 10 7 18 6 7 7 13 2 13 -5 0 -10 6 -10 13 0 36 -15 289 -19 331 -2
27 -7 103 -10 170 -3 66 -8 150 -10 186 -2 36 -6 108 -8 160 -3 52 -8 133 -11
180 -4 47 -8 119 -10 160 -10 182 -16 276 -19 286 -3 6 -37 14 -78 17 -165 13
-327 114 -421 263 -25 41 -79 183 -76 201 1 4 1 20 0 34 -1 24 -5 26 -42 25
-22 -1 -41 -2 -42 -3z"/>
</g>
</svg>
